M48
; DRILL file {KiCad (6.0.7)} date Mon Oct 31 18:53:31 2022
; FORMAT={-:-/ absolute / inch / decimal}
; #@! TF.CreationDate,2022-10-31T18:53:31-05:00
; #@! TF.GenerationSoftware,Kicad,Pcbnew,(6.0.7)
; #@! TF.FileFunction,Plated,1,2,PTH
FMAT,2
INCH
; #@! TA.AperFunction,Plated,PTH,ViaDrill
T1C0.0157
; #@! TA.AperFunction,Plated,PTH,ComponentDrill
T2C0.0276
; #@! TA.AperFunction,Plated,PTH,ComponentDrill
T3C0.0291
; #@! TA.AperFunction,Plated,PTH,ComponentDrill
T4C0.0307
; #@! TA.AperFunction,Plated,PTH,ComponentDrill
T5C0.0315
; #@! TA.AperFunction,Plated,PTH,ComponentDrill
T6C0.0394
; #@! TA.AperFunction,Plated,PTH,ComponentDrill
T7C0.0402
%
G90
G05
T1
X1.94Y-2.935
X1.95Y-4.285
X1.975Y-2.78
X1.975Y-3.195
X2.06Y-3.095
X2.065Y-2.775
X2.265Y-4.53
X2.27Y-3.825
X2.3Y-3.995
X2.3Y-4.46
X2.34Y-4.05
X2.34Y-4.495
X2.45Y-2.82
X2.45Y-2.94
X2.515Y-2.85
X2.515Y-2.955
X2.57Y-4.205
X2.57Y-4.3165
X2.575Y-3.12
X2.58Y-3.03
X2.62Y-4.3735
X2.625Y-2.755
X2.625Y-4.105
X2.625Y-4.2914
X2.665Y-3.03
X2.685Y-3.075
X2.7264Y-3.5086
X2.73Y-2.865
X2.73Y-2.93
X2.765Y-3.26
X2.765Y-3.995
X2.795Y-2.665
X2.795Y-2.995
X2.82Y-3.695
X2.845Y-3.24
X2.855Y-3.725
X2.865Y-3.51
X2.87Y-2.8665
X2.87Y-2.9235
X2.875Y-3.875
X2.895Y-2.975
X2.9Y-2.625
X2.905Y-3.66
X2.915Y-3.44
X2.925Y-3.32
X2.925Y-3.805
X2.945Y-4.38
X2.95Y-3.51
X2.9572Y-4.1379
X2.965Y-2.865
X2.965Y-2.925
X2.965Y-4.3165
X2.98Y-3.075
X3.005Y-2.585
X3.025Y-3.54
X3.055Y-3.445
X3.095Y-3.965
X3.1Y-3.345
X3.11Y-4.055
X3.115Y-2.54
X3.135Y-3.535
X3.16Y-3.405
X3.165Y-3.08
X3.165Y-4.1
X3.1788Y-3.9609
X3.195Y-3.22
X3.21Y-2.66
X3.235Y-2.62
X3.2622Y-4.2628
X3.27Y-2.58
X3.2918Y-2.5473
X3.3Y-3.385
X3.3688Y-2.885
X3.385Y-3.835
X3.395Y-3.25
X3.43Y-3.63
X3.43Y-3.995
X3.43Y-4.135
X3.495Y-3.28
X3.535Y-3.54
X3.575Y-3.8636
X3.575Y-3.94
X3.575Y-4.035
X3.58Y-2.525
X3.58Y-3.42
X3.58Y-3.47
X3.5933Y-3.815
X3.605Y-4.265
X3.64Y-3.51
X3.655Y-2.515
X3.665Y-3.42
X3.67Y-4.035
X3.6745Y-3.8662
X3.675Y-3.57
X3.675Y-3.815
X3.675Y-3.94
X3.98Y-3.88
X4.01Y-3.935
X4.04Y-3.135
X4.05Y-2.58
X4.05Y-3.54
X4.055Y-2.53
X4.055Y-2.6206
X4.055Y-2.66
X4.065Y-2.885
X4.08Y-3.88
X4.095Y-2.95
X4.135Y-3.935
X4.16Y-3.045
X4.25Y-3.135
X4.27Y-3.005
X4.48Y-3.495
X4.48Y-3.9635
X4.52Y-3.28
X4.535Y-3.385
X4.56Y-3.68
X4.56Y-3.975
X4.5633Y-3.6017
X4.68Y-3.005
X4.735Y-3.245
X4.775Y-2.83
X4.78Y-4.15
X4.785Y-3.28
X4.835Y-3.325
X4.835Y-4.065
X4.855Y-3.225
X4.87Y-3.585
X4.87Y-3.78
X5.125Y-4.13
X5.125Y-4.37
X5.2415Y-4.17
X5.31Y-4.17
T2
X2.7973Y-2.7613
X2.7973Y-3.1613
X2.8973Y-2.7613
X2.8973Y-3.1613
X2.9973Y-2.7613
X2.9973Y-3.1613
X3.0973Y-2.7613
X3.0973Y-3.1613
X3.1973Y-3.1613
X3.2973Y-2.7613
X3.2973Y-3.1613
X3.3973Y-3.1613
X3.4973Y-2.7613
X3.4973Y-3.1613
X4.48Y-2.74
X4.48Y-3.14
X4.58Y-2.74
X4.58Y-3.14
X4.68Y-2.74
X4.68Y-3.14
X4.78Y-2.74
X4.78Y-3.14
X4.88Y-3.14
X4.98Y-2.74
X4.98Y-3.14
X5.08Y-3.14
X5.18Y-2.74
X5.18Y-3.14
T3
X4.672Y-3.67
X4.672Y-3.77
X4.672Y-3.87
X4.672Y-3.97
X4.672Y-4.07
X4.672Y-4.17
X4.672Y-4.27
X4.672Y-4.37
X4.9846Y-3.67
X4.9846Y-3.77
X4.9846Y-3.87
X4.9846Y-3.97
X4.9846Y-4.07
X4.9846Y-4.17
X4.9846Y-4.27
X4.9846Y-4.37
T4
X3.0271Y-3.6
X3.0271Y-3.7
X3.0271Y-3.8
X3.0271Y-3.9
X3.0271Y-4.0
X3.0271Y-4.1
X3.0271Y-4.2
X3.0271Y-4.3
X3.3397Y-3.6
X3.3397Y-3.7
X3.3397Y-3.8
X3.3397Y-3.9
X3.3397Y-4.0
X3.3397Y-4.1
X3.3397Y-4.2
X3.3397Y-4.3
T5
X2.405Y-3.605
X2.405Y-3.705
X2.405Y-3.805
X2.405Y-3.905
X2.405Y-4.005
X2.405Y-4.105
X2.405Y-4.205
X2.405Y-4.305
X2.705Y-3.605
X2.705Y-3.705
X2.705Y-3.805
X2.705Y-3.905
X2.705Y-4.005
X2.705Y-4.105
X2.705Y-4.205
X2.705Y-4.305
T6
X1.865Y-2.895
X1.865Y-2.995
X1.865Y-3.095
X1.865Y-3.195
X1.865Y-3.295
X1.865Y-3.395
X1.865Y-3.495
X1.865Y-3.595
X1.865Y-3.84
X1.865Y-3.94
X1.865Y-4.04
X1.865Y-4.14
X1.865Y-4.24
X1.865Y-4.34
X1.865Y-4.44
X1.865Y-4.54
X3.4494Y-2.406
X3.5281Y-2.406
X3.6069Y-2.406
X3.6856Y-2.406
X3.7644Y-2.406
X3.8431Y-2.406
X3.9219Y-2.406
X4.0006Y-2.406
T7
X3.575Y-3.745
X3.675Y-3.745
X3.775Y-3.745
X3.875Y-3.745
X4.0754Y-3.7332
X4.105Y-4.135
X4.1754Y-3.7332
X4.205Y-4.135
X4.2754Y-3.7332
X4.305Y-4.135
X4.3754Y-3.7332
X4.405Y-4.135
T6
G00X2.2073Y-1.5812
M15
G01X2.2073Y-1.6442
M16
G05
G00X2.2073Y-1.9158
M15
G01X2.2073Y-1.9788
M16
G05
T0
M30
